<mxfile host="app.diagrams.net" modified="2023-12-08T16:41:13.485Z" agent="Mozilla/5.0 (Windows NT 10.0; Win64; x64) AppleWebKit/537.36 (KHTML, like Gecko) Chrome/119.0.0.0 Safari/537.36" version="22.1.7" etag="KBmPoyMl711AjD-j2Utn" type="github">
  <diagram name="PÃ¡gina-1" id="Vkcl-X-pjpEaNRaXg5EO">
    <mxGraphModel>
      <root>
        <mxCell id="0" />
        <mxCell id="1" parent="0" />
      </root>
    </mxGraphModel>
  </diagram>
</mxfile>
